<?xml version="1.0" encoding="UTF-8" standalone="no"?>
<svg
   xmlns:dc="http://purl.org/dc/elements/1.1/"
   xmlns:cc="http://creativecommons.org/ns#"
   xmlns:rdf="http://www.w3.org/1999/02/22-rdf-syntax-ns#"
   xmlns:svg="http://www.w3.org/2000/svg"
   xmlns="http://www.w3.org/2000/svg"
   xmlns:sodipodi="http://sodipodi.sourceforge.net/DTD/sodipodi-0.dtd"
   xmlns:inkscape="http://www.inkscape.org/namespaces/inkscape"
   height="20"
   width="20"
   data-name="Beamed Eighth Note"
   viewBox="0 0 6.6666667 6.6666667"
   x="0px"
   y="0px"
   version="1.1"
   id="svg6"
   sodipodi:docname="play.svg"
   style="fill:#000000"
   inkscape:version="0.92.3 (2405546, 2018-03-11)">
  <metadata
     id="metadata12">
    <rdf:RDF>
      <cc:Work
         rdf:about="">
        <dc:format>image/svg+xml</dc:format>
        <dc:type
           rdf:resource="http://purl.org/dc/dcmitype/StillImage" />
        <dc:title>Alt codes_</dc:title>
      </cc:Work>
    </rdf:RDF>
  </metadata>
  <defs
     id="defs10" />
  <sodipodi:namedview
     pagecolor="#ffffff"
     bordercolor="#666666"
     borderopacity="1"
     objecttolerance="10"
     gridtolerance="10"
     guidetolerance="10"
     inkscape:pageopacity="0"
     inkscape:pageshadow="2"
     inkscape:window-width="1476"
     inkscape:window-height="1002"
     id="namedview8"
     showgrid="false"
     inkscape:zoom="4.5638235"
     inkscape:cx="48.305085"
     inkscape:cy="40.677966"
     inkscape:window-x="1305"
     inkscape:window-y="859"
     inkscape:window-maximized="0"
     inkscape:current-layer="svg6" />
  <title
     id="title2">Alt codes_</title>
  <path
     d="M 2.5432105,1.2967897 V 5.1427155 A 1.346173,1.346173 0 0 0 1.8054324,4.9323453 c -0.6281483,0 -1.13876573,0.3901233 -1.13876573,0.8671605 0,0.4770372 0.50765433,0.8671609 1.13283953,0.8671609 0.6251853,0 1.1229632,-0.3792593 1.1387657,-0.8503703 v 0 -4.0355562 L 5.6049386,0.8009868 V 3.9901233 A 1.346173,1.346173 0 0 0 4.8671605,3.7797531 c -0.6281483,0 -1.1387657,0.3891353 -1.1387657,0.8681476 0,0.4790132 0.5076553,0.8671614 1.1328405,0.8671614 0.6251853,0 1.1229622,-0.3792598 1.1387647,-0.8513589 v 0 -4.63703668 z"
     id="path4"
     inkscape:connector-curvature="0"
     style="stroke-width:0.09876544;fill:#ffffff" />
</svg>
